<svg width="48" viewBox="0 0 254 166" fill="none" xmlns="http://www.w3.org/2000/svg">
<path d="M124.18 113.94C134.231 105.492 141.44 94.1574 144.83 81.4732C148.22 68.789 147.627 55.369 143.131 43.0333C138.635 30.6976 130.454 20.043 119.698 12.5146C108.941 4.98613 96.1294 0.94809 83 0.94809C69.8706 0.94809 57.0588 4.98613 46.3022 12.5146C35.5456 20.043 27.3647 30.6976 22.8689 43.0333C18.3732 55.369 17.7801 68.789 21.1702 81.4732C24.5603 94.1574 31.7694 105.492 41.82 113.94C26.1258 121.036 12.5251 132.057 2.32997 145.94C0.446936 148.506 -0.339649 151.715 0.143258 154.861C0.626164 158.007 2.339 160.832 4.90497 162.715C7.47094 164.598 10.6799 165.385 13.8258 164.902C16.9717 164.419 19.7969 162.706 21.68 160.14C28.7374 150.501 37.9676 142.662 48.6217 137.258C59.2758 131.854 71.0538 129.038 83 129.038C94.9462 129.038 106.724 131.854 117.378 137.258C128.032 142.662 137.263 150.501 144.32 160.14C146.203 162.707 149.029 164.421 152.176 164.905C155.322 165.389 158.533 164.603 161.1 162.72C163.667 160.837 165.381 158.011 165.865 154.864C166.349 151.717 165.563 148.507 163.68 145.94C153.479 132.059 139.875 121.039 124.18 113.94ZM43 65C43 57.0887 45.3459 49.3552 49.7412 42.7772C54.1364 36.1992 60.3836 31.0723 67.6926 28.0448C75.0017 25.0173 83.0443 24.2252 90.8036 25.7686C98.5628 27.312 105.69 31.1216 111.284 36.7157C116.878 42.3098 120.688 49.4372 122.231 57.1964C123.775 64.9556 122.983 72.9983 119.955 80.3073C116.928 87.6164 111.801 93.8635 105.223 98.2588C98.6448 102.654 90.9112 105 83 105C72.3913 105 62.2172 100.786 54.7157 93.2843C47.2142 85.7828 43 75.6087 43 65ZM249.1 162.67C247.83 163.604 246.388 164.278 244.857 164.654C243.326 165.03 241.736 165.1 240.177 164.862C238.619 164.623 237.123 164.08 235.775 163.263C234.427 162.446 233.253 161.371 232.32 160.1C225.245 150.48 216.011 142.654 205.361 137.253C194.711 131.851 182.942 129.024 171 129C167.817 129 164.765 127.736 162.515 125.485C160.264 123.235 159 120.183 159 117C159 113.817 160.264 110.765 162.515 108.515C164.765 106.264 167.817 105 171 105C176.685 104.99 182.303 103.768 187.479 101.415C192.655 99.0631 197.27 95.6343 201.016 91.3578C204.763 87.0813 207.554 82.0553 209.205 76.6149C210.856 71.1745 211.328 65.4446 210.59 59.8073C209.852 54.17 207.921 48.7549 204.925 43.9228C201.929 39.0908 197.938 34.9528 193.217 31.7849C188.496 28.617 183.154 26.4919 177.547 25.5513C171.939 24.6107 166.196 24.8762 160.7 26.33C159.165 26.7741 157.557 26.9071 155.969 26.7213C154.382 26.5354 152.848 26.0344 151.457 25.2476C150.066 24.4608 148.846 23.4041 147.869 22.1395C146.892 20.875 146.178 19.428 145.767 17.8835C145.357 16.339 145.259 14.7281 145.48 13.1453C145.701 11.5626 146.235 10.0399 147.053 8.66653C147.87 7.2932 148.953 6.09692 150.239 5.1479C151.524 4.19887 152.987 3.51622 154.54 3.14C168.595 -0.584002 183.498 0.588584 196.798 6.46471C210.097 12.3408 220.999 22.5703 227.709 35.4689C234.419 48.3675 236.537 63.1665 233.715 77.4295C230.892 91.6925 223.297 104.569 212.18 113.94C227.874 121.036 241.475 132.057 251.67 145.94C253.54 148.502 254.319 151.7 253.837 154.835C253.356 157.97 251.652 160.787 249.1 162.67Z" fill="#4CAF4F"/>
</svg>
